REM DIRINDEX 1\2,1\3,1\4
REM DIRNAME folder01,folder02,folder03,folder04
TITLE ""
FILE "132 132_TOEFL_3900.mp3" MP3
  TRACK 01 AUDIO
    TITLE "2:cjc151_5735"
    INDEX 01 00:00:00
  TRACK 02 AUDIO
    TITLE "0:"
    INDEX 01 00:01:34
  TRACK 03 AUDIO
    TITLE "3:cjc151_5736"
    INDEX 01 00:03:14
  TRACK 04 AUDIO
    TITLE "0:"
    INDEX 01 00:07:33
  TRACK 05 AUDIO
    TITLE "2:cjc151_5737"
    INDEX 01 00:09:10
  TRACK 06 AUDIO
    TITLE "0:"
    INDEX 01 00:10:21
  TRACK 07 AUDIO
    TITLE "3:cjc151_5738"
    INDEX 01 00:11:74
  TRACK 08 AUDIO
    TITLE "0:"
    INDEX 01 00:15:11
  TRACK 09 AUDIO
    TITLE "2:cjc151_5739"
    INDEX 01 00:16:63
  TRACK 10 AUDIO
    TITLE "0:"
    INDEX 01 00:17:70
  TRACK 11 AUDIO
    TITLE "3:cjc151_5740"
    INDEX 01 00:19:58
  TRACK 12 AUDIO
    TITLE "0:"
    INDEX 01 00:24:69
  TRACK 13 AUDIO
    TITLE "2:cjc151_5741"
    INDEX 01 00:26:46
  TRACK 14 AUDIO
    TITLE "0:"
    INDEX 01 00:28:00
  TRACK 15 AUDIO
    TITLE "3:cjc151_5742"
    INDEX 01 00:29:54
  TRACK 16 AUDIO
    TITLE "0:"
    INDEX 01 00:33:42
  TRACK 17 AUDIO
    TITLE "2:cjc151_5743"
    INDEX 01 00:35:21
  TRACK 18 AUDIO
    TITLE "0:"
    INDEX 01 00:36:62
  TRACK 19 AUDIO
    TITLE "3:cjc151_5744"
    INDEX 01 00:38:41
  TRACK 20 AUDIO
    TITLE "0:"
    INDEX 01 00:43:23
  TRACK 21 AUDIO
    TITLE "2:cjc151_5745"
    INDEX 01 00:45:00
  TRACK 22 AUDIO
    TITLE "0:"
    INDEX 01 00:46:33
  TRACK 23 AUDIO
    TITLE "3:cjc151_5746"
    INDEX 01 00:48:10
  TRACK 24 AUDIO
    TITLE "0:"
    INDEX 01 00:52:00
  TRACK 25 AUDIO
    TITLE "2:cjc151_5747"
    INDEX 01 00:53:53
  TRACK 26 AUDIO
    TITLE "0:"
    INDEX 01 00:54:64
  TRACK 27 AUDIO
    TITLE "3:cjc151_5748"
    INDEX 01 00:56:41
  TRACK 28 AUDIO
    TITLE "0:"
    INDEX 01 00:59:45
  TRACK 29 AUDIO
    TITLE "2:cjc151_5749"
    INDEX 01 01:01:25
  TRACK 30 AUDIO
    TITLE "0:"
    INDEX 01 01:02:16
  TRACK 31 AUDIO
    TITLE "3:cjc151_5750"
    INDEX 01 01:03:71
  TRACK 32 AUDIO
    TITLE "0:"
    INDEX 01 01:08:35
  TRACK 33 AUDIO
    TITLE "2:cjc151_5751"
    INDEX 01 01:10:10
  TRACK 34 AUDIO
    TITLE "0:"
    INDEX 01 01:11:23
  TRACK 35 AUDIO
    TITLE "3:cjc151_5752"
    INDEX 01 01:13:00
  TRACK 36 AUDIO
    TITLE "0:"
    INDEX 01 01:15:70
  TRACK 37 AUDIO
    TITLE "2:cjc151_5753"
    INDEX 01 01:17:49
  TRACK 38 AUDIO
    TITLE "0:"
    INDEX 01 01:18:47
  TRACK 39 AUDIO
    TITLE "3:cjc151_5754"
    INDEX 01 01:20:26
  TRACK 40 AUDIO
    TITLE "0:"
    INDEX 01 01:24:00
  TRACK 41 AUDIO
    TITLE "2:cjc151_5755"
    INDEX 01 01:25:57
  TRACK 42 AUDIO
    TITLE "0:"
    INDEX 01 01:26:74
  TRACK 43 AUDIO
    TITLE "3:cjc151_5756"
    INDEX 01 01:28:51
  TRACK 44 AUDIO
    TITLE "0:"
    INDEX 01 01:32:47
  TRACK 45 AUDIO
    TITLE "2:cjc151_5757"
    INDEX 01 01:34:26
  TRACK 46 AUDIO
    TITLE "0:"
    INDEX 01 01:35:43
  TRACK 47 AUDIO
    TITLE "3:cjc151_5758"
    INDEX 01 01:37:32
  TRACK 48 AUDIO
    TITLE "0:"
    INDEX 01 01:41:16
  TRACK 49 AUDIO
    TITLE "2:cjc151_5759"
    INDEX 01 01:42:69
  TRACK 50 AUDIO
    TITLE "0:"
    INDEX 01 01:45:67
  TRACK 51 AUDIO
    TITLE "3:cjc151_5760"
    INDEX 01 01:47:46
  TRACK 52 AUDIO
    TITLE "0:"
    INDEX 01 01:50:43
  TRACK 53 AUDIO
    TITLE "2:cjc151_5761"
    INDEX 01 01:52:20
  TRACK 54 AUDIO
    TITLE "0:"
    INDEX 01 01:53:31
  TRACK 55 AUDIO
    TITLE "3:cjc151_5762"
    INDEX 01 01:55:09
  TRACK 56 AUDIO
    TITLE "0:"
    INDEX 01 01:59:50
  TRACK 57 AUDIO
    TITLE "2:cjc151_5763"
    INDEX 01 02:01:23
  TRACK 58 AUDIO
    TITLE "0:"
    INDEX 01 02:02:28
  TRACK 59 AUDIO
    TITLE "3:cjc151_5764"
    INDEX 01 02:04:06
  TRACK 60 AUDIO
    TITLE "0:"
    INDEX 01 02:08:72
  TRACK 61 AUDIO
    TITLE "2:cjc151_5765"
    INDEX 01 02:10:53
  TRACK 62 AUDIO
    TITLE "0:"
    INDEX 01 02:11:63
  TRACK 63 AUDIO
    TITLE "3:cjc151_5766"
    INDEX 01 02:13:40
  TRACK 64 AUDIO
    TITLE "0:"
    INDEX 01 02:17:18
  TRACK 65 AUDIO
    TITLE "2:cjc151_5767"
    INDEX 01 02:18:72
  TRACK 66 AUDIO
    TITLE "0:"
    INDEX 01 02:20:12
  TRACK 67 AUDIO
    TITLE "3:cjc151_5768"
    INDEX 01 02:21:65
  TRACK 68 AUDIO
    TITLE "0:"
    INDEX 01 02:26:05
  TRACK 69 AUDIO
    TITLE "2:cjc151_5769"
    INDEX 01 02:27:62
  TRACK 70 AUDIO
    TITLE "0:"
    INDEX 01 02:28:59
  TRACK 71 AUDIO
    TITLE "3:cjc151_5770"
    INDEX 01 02:30:36
  TRACK 72 AUDIO
    TITLE "0:"
    INDEX 01 02:34:38
  TRACK 73 AUDIO
    TITLE "2:cjc151_5771"
    INDEX 01 02:36:17
  TRACK 74 AUDIO
    TITLE "0:"
    INDEX 01 02:37:56
  TRACK 75 AUDIO
    TITLE "3:cjc151_5772"
    INDEX 01 02:39:35
  TRACK 76 AUDIO
    TITLE "0:"
    INDEX 01 02:44:36
  TRACK 77 AUDIO
    TITLE "2:cjc151_5773"
    INDEX 01 02:46:18
  TRACK 78 AUDIO
    TITLE "0:"
    INDEX 01 02:47:27
  TRACK 79 AUDIO
    TITLE "3:cjc151_5774"
    INDEX 01 02:49:06
  TRACK 80 AUDIO
    TITLE "0:"
    INDEX 01 02:53:06
  TRACK 81 AUDIO
    TITLE "2:cjc151_5775"
    INDEX 01 02:54:60
  TRACK 82 AUDIO
    TITLE "0:"
    INDEX 01 02:55:74
  TRACK 83 AUDIO
    TITLE "3:cjc151_5776"
    INDEX 01 02:57:51
  TRACK 84 AUDIO
    TITLE "0:"
    INDEX 01 03:01:47
  TRACK 85 AUDIO
    TITLE "2:cjc151_5777"
    INDEX 01 03:03:24
  TRACK 86 AUDIO
    TITLE "0:"
    INDEX 01 03:04:41
  TRACK 87 AUDIO
    TITLE "3:cjc151_5778"
    INDEX 01 03:06:18
  TRACK 88 AUDIO
    TITLE "0:"
    INDEX 01 03:10:24
